<?xml version="1.0" encoding="UTF-8"?>
<svg xmlns="http://www.w3.org/2000/svg" version="1.1" viewBox="0 0 24 24">
  <!-- Generator: Adobe Illustrator 28.7.1, SVG Export Plug-In . SVG Version: 1.2.0 Build 142)  -->
  <g>
    <g id="Layer_1">
      <path d="M2.2,23V1h1.9v2.5h3.2V1h9.5v2.5h3.2V1h1.9v22.1h-1.9v-2.5h-3.2v2.5H7.3v-2.5h-3.2v2.5h-1.9ZM4.1,18.6h3.2v-3.2h-3.2v3.2ZM4.1,13.6h3.2v-3.2h-3.2v3.2ZM4.1,8.5h3.2v-3.2h-3.2v3.2ZM16.7,18.6h3.2v-3.2h-3.2v3.2ZM16.7,13.6h3.2v-3.2h-3.2v3.2ZM16.7,8.5h3.2v-3.2h-3.2v3.2ZM9.2,21.1h5.7V2.9h-5.7v18.3ZM9.2,2.9h5.7-5.7Z"/>
    </g>
  </g>
</svg>